HIERARCHY
ROOT hip
{
  OFFSET 0 0 0
  CHANNELS 6 Xposition Yposition Zposition Zrotation Yrotation Xrotation
  JOINT abdomen
  {
    OFFSET 0 20.6881 -0.73152
    CHANNELS 3 Zrotation Xrotation Yrotation
    JOINT chest
    {
      OFFSET 0 11.7043 -0.48768
      CHANNELS 3 Zrotation Xrotation Yrotation
      JOINT neck
      {
        OFFSET 0 22.1894 -2.19456
        CHANNELS 3 Zrotation Xrotation Yrotation
        JOINT head
        {
          OFFSET -0.24384 7.07133 1.2192
          CHANNELS 3 Zrotation Xrotation Yrotation
          JOINT leftEye
          {
            OFFSET 4.14528 8.04674 8.04672
            CHANNELS 3 Zrotation Xrotation Yrotation
            End Site
            {
              OFFSET 1 0 0
            }
          }
          JOINT rightEye
          {
            OFFSET -3.6576 8.04674 8.04672
            CHANNELS 3 Zrotation Xrotation Yrotation
            End Site
            {
              OFFSET 1 0 0
            }
          }
        }
      }
      JOINT rCollar
      {
        OFFSET -2.68224 19.2634 -4.8768
        CHANNELS 3 Zrotation Xrotation Yrotation
        JOINT rShldr
        {
          OFFSET -8.77824 -1.95073 1.46304
          CHANNELS 3 Zrotation Xrotation Yrotation
          JOINT rForeArm
          {
            OFFSET -28.1742 -1.7115 0.48768
            CHANNELS 3 Zrotation Xrotation Yrotation
            JOINT rHand
            {
              OFFSET -22.5879 0.773209 7.07136
              CHANNELS 3 Zrotation Xrotation Yrotation
              JOINT rThumb1
              {
                OFFSET -1.2192 -0.487915 3.41376
                CHANNELS 3 Zrotation Xrotation Yrotation
                JOINT rThumb2
                {
                  OFFSET -3.37035 -0.52449 3.41376
                  CHANNELS 3 Zrotation Xrotation Yrotation
                  End Site
                  {
                    OFFSET -1.78271 -1.18214 1.43049
                  }
                }
              }
              JOINT rIndex1
              {
                OFFSET -7.75947 0.938293 5.60832
                CHANNELS 3 Zrotation Xrotation Yrotation
                JOINT rIndex2
                {
                  OFFSET -2.54057 -0.884171 1.56538
                  CHANNELS 3 Zrotation Xrotation Yrotation
                  End Site
                  {
                    OFFSET -1.62519 -0.234802 1.16502
                  }
                }
              }
              JOINT rMid1
              {
                OFFSET -8.24714 1.18213 3.41376
                CHANNELS 3 Zrotation Xrotation Yrotation
                JOINT rMid2
                {
                  OFFSET -3.10165 -0.590103 1.0647
                  CHANNELS 3 Zrotation Xrotation Yrotation
                  End Site
                  {
                    OFFSET -2.48547 -0.328903 0.83742
                  }
                }
              }
              JOINT rRing1
              {
                OFFSET -8.82822 0.546677 1.51678
                CHANNELS 3 Zrotation Xrotation Yrotation
                JOINT rRing2
                {
                  OFFSET -2.60934 -0.819778 -0.0198488
                  CHANNELS 3 Zrotation Xrotation Yrotation
                  End Site
                  {
                    OFFSET -2.33842 -0.294052 0.168128
                  }
                }
              }
              JOINT rPinky1
              {
                OFFSET -8.27202 -0.0477905 -0.4584
                CHANNELS 3 Zrotation Xrotation Yrotation
                JOINT rPinky2
                {
                  OFFSET -1.82734 -0.647385 -0.700984
                  CHANNELS 3 Zrotation Xrotation Yrotation
                  End Site
                  {
                    OFFSET -1.69225 -0.51767 -0.607171
                  }
                }
              }
            }
          }
        }
      }
      JOINT lCollar
      {
        OFFSET 2.68224 19.2634 -4.8768
        CHANNELS 3 Zrotation Xrotation Yrotation
        JOINT lShldr
        {
          OFFSET 8.77824 -1.95073 1.46304
          CHANNELS 3 Zrotation Xrotation Yrotation
          JOINT lForeArm
          {
            OFFSET 28.1742 -1.7115 0.48768
            CHANNELS 3 Zrotation Xrotation Yrotation
            JOINT lHand
            {
              OFFSET 22.5879 0.773209 7.07136
              CHANNELS 3 Zrotation Xrotation Yrotation
              JOINT lThumb1
              {
                OFFSET 1.2192 -0.487915 3.41376
                CHANNELS 3 Zrotation Xrotation Yrotation
                JOINT lThumb2
                {
                  OFFSET 3.37035 -0.52449 3.41376
                  CHANNELS 3 Zrotation Xrotation Yrotation
                  End Site
                  {
                    OFFSET 1.78271 -1.18214 1.43049
                  }
                }
              }
              JOINT lIndex1
              {
                OFFSET 7.75947 0.938293 5.60832
                CHANNELS 3 Zrotation Xrotation Yrotation
                JOINT lIndex2
                {
                  OFFSET 2.54057 -0.884171 1.56538
                  CHANNELS 3 Zrotation Xrotation Yrotation
                  End Site
                  {
                    OFFSET 1.62519 -0.234802 1.16502
                  }
                }
              }
              JOINT lMid1
              {
                OFFSET 8.24714 1.18213 3.41376
                CHANNELS 3 Zrotation Xrotation Yrotation
                JOINT lMid2
                {
                  OFFSET 3.10165 -0.590103 1.0647
                  CHANNELS 3 Zrotation Xrotation Yrotation
                  End Site
                  {
                    OFFSET 2.48547 -0.328903 0.83742
                  }
                }
              }
              JOINT lRing1
              {
                OFFSET 8.82822 0.546677 1.51678
                CHANNELS 3 Zrotation Xrotation Yrotation
                JOINT lRing2
                {
                  OFFSET 2.60934 -0.819778 -0.0198488
                  CHANNELS 3 Zrotation Xrotation Yrotation
                  End Site
                  {
                    OFFSET 2.33842 -0.294052 0.168128
                  }
                }
              }
              JOINT lPinky1
              {
                OFFSET 8.27202 -0.0477905 -0.4584
                CHANNELS 3 Zrotation Xrotation Yrotation
                JOINT lPinky2
                {
                  OFFSET 1.82734 -0.647385 -0.700984
                  CHANNELS 3 Zrotation Xrotation Yrotation
                  End Site
                  {
                    OFFSET 1.69225 -0.51767 -0.607171
                  }
                }
              }
            }
          }
        }
      }
    }
  }
  JOINT rButtock
  {
    OFFSET -8.77824 4.35084 1.2192
    CHANNELS 3 Zrotation Xrotation Yrotation
    JOINT rThigh
    {
      OFFSET 0 -1.70687 -2.19456
      CHANNELS 3 Zrotation Xrotation Yrotation
      JOINT rShin
      {
        OFFSET 0 -36.8199 0.73152
        CHANNELS 3 Zrotation Xrotation Yrotation
        JOINT rFoot
        {
          OFFSET 0.73152 -45.1104 -5.12064
          CHANNELS 3 Zrotation Xrotation Yrotation
          End Site
          {
            OFFSET -1.1221 -3.69964 12.103
          }
        }
      }
    }
  }
  JOINT lButtock
  {
    OFFSET 8.77824 4.35084 1.2192
    CHANNELS 3 Zrotation Xrotation Yrotation
    JOINT lThigh
    {
      OFFSET 0 -1.70687 -2.19456
      CHANNELS 3 Zrotation Xrotation Yrotation
      JOINT lShin
      {
        OFFSET 0 -36.8199 0.73152
        CHANNELS 3 Zrotation Xrotation Yrotation
        JOINT lFoot
        {
          OFFSET -0.73152 -45.1104 -5.12064
          CHANNELS 3 Zrotation Xrotation Yrotation
          End Site
          {
            OFFSET 1.1221 -3.69964 12.103
          }
        }
      }
    }
  }
}
MOTION
Frames:	6
Frame Time:	0.00833333
188.927 84.7658 43.115 0.0 0.0 0.0 -0.385199 -0.00168812 -0.0109959 -0.106235 -0.0025671 -0.018405 9.33701e-15 -1.59028e-15 -1.05604e-16 2.80255e-14 3.18055e-15 -3.29237e-16 -0.0 0.0 0.0 -0.0 0.0 0.0 4.67029e-15 4.27076e-18 9.93923e-17 1.00988e-13 -2.54693e-16 1.98785e-16 1.69007e-12 -5.01335e-13 -9.54166e-15 1.93354e-11 5.2345e-13 -2.09917e-13 4.56095e-11 5.35349e-14 -4.45278e-13 7.87617e-11 9.54166e-14 -7.95139e-13 4.56175e-11 5.56597e-14 -4.6118e-13 7.73091 5.47488 0.417314 4.56112e-11 5.35725e-14 -4.45278e-13 2.90554 0.965183 0.102902 4.56269e-11 5.41688e-14 -4.58e-13 10.2786 0.731801 0.0259123 4.56131e-11 5.1684e-14 -4.54819e-13 2.22167 -0.733487 -0.20892 4.67289e-15 4.65902e-18 -1.98785e-16 9.54745e-14 4.34841e-17 -1.59028e-15 1.68743e-12 5.13063e-13 -4.77083e-14 1.93373e-11 -4.70175e-13 -1.46306e-13 4.56108e-11 9.31851e-14 -4.67542e-13 7.87752e-11 1.62208e-13 -7.97524e-13 4.56032e-11 9.78021e-14 -4.64361e-13 -7.73091 5.47488 -0.417314 4.56092e-11 9.3727e-14 -4.6118e-13 -2.90554 0.965183 -0.102902 4.55937e-11 9.40251e-14 -4.60385e-13 -10.2786 0.731801 -0.0259123 4.56123e-11 9.38264e-14 -4.58e-13 -2.22167 -0.733487 0.20892 -2.03217e-16 0.0 -3.88251e-19 0.221684 -2.58356 -0.0280816 -0.00748983 -0.872636 -0.0651422 -0.513146 3.45577 0.129352 2.03217e-16 0.0 3.88251e-19 -0.807741 -4.07085 0.0653901 0.00325551 1.82139 0.0244298 0.517676 2.24911 -0.105175
183.877 83.3058 36.9595 165.302 -86.3221 -159.31 0.143886 -0.0528533 -0.245857 0.695346 -0.237285 -0.0747591 -1.27651 1.89286 -0.988988 2.42586 -4.81 -1.41841 -0.0 0.0 0.0 -0.0 0.0 0.0 7.99751e-15 7.81069e-13 -7.33135e-14 15.5624 10.5233 9.7939 -11.6691 -8.59095 13.2701 0.00258554 1.1301 0.158714 -4.78135e-10 1.51409e-10 4.34439e-10 -8.25601e-10 2.61676e-10 7.5387e-10 -4.78126e-10 1.5141e-10 4.34426e-10 7.73091 5.47488 0.417314 -4.78133e-10 1.51407e-10 4.3444e-10 2.90554 0.965183 0.102902 -4.7812e-10 1.51407e-10 4.34431e-10 10.2786 0.731801 0.0259123 -4.78134e-10 1.51406e-10 4.34434e-10 2.22167 -0.733487 -0.20892 7.95783e-15 7.81067e-13 -7.36571e-14 -22.7177 7.42984 -8.95781 9.38894 -6.25025 -11.8831 -0.294742 -12.0947 1.56628 3.31403e-12 7.18989e-11 -6.90752e-10 2.96754e-11 1.32061e-10 -1.19291e-09 3.30767e-12 7.19026e-11 -6.9075e-10 -7.73091 5.47488 -0.417314 3.31337e-12 7.19006e-11 -6.90747e-10 -2.90554 0.965183 -0.102902 3.29899e-12 7.1901e-11 -6.90748e-10 -10.2786 0.731801 -0.0259123 3.31721e-12 7.19007e-11 -6.90747e-10 -2.22167 -0.733487 0.20892 -2.03217e-16 0.0 -3.88251e-19 -1.29931 -12.6371 -1.57871 -0.0119694 4.93307 0.013626 -0.68761 2.77327 -4.42461 2.03217e-16 0.0 3.88251e-19 -1.58077 -4.92024 -0.68185 -0.0164089 5.75575 -0.0926902 0.671907 -1.18597 2.20096
183.512 83.2757 36.6671 180.29 -85.9501 -173.667 0.697299 -0.103936 -0.487666 1.5348 -0.49389 -0.132213 -2.55545 3.90785 -2.03224 4.72103 -9.87971 -2.94267 -0.0 0.0 0.0 -0.0 0.0 0.0 1.2855e-14 1.66106e-12 -1.56996e-13 27.9145 20.5858 21.2821 -19.7029 -16.128 28.1951 -0.00149055 2.3167 0.325573 -1.11032e-09 3.3236e-10 9.52224e-10 -1.91722e-09 5.74443e-10 1.65244e-09 -1.11031e-09 3.32359e-10 9.52212e-10 7.73091 5.47488 0.417314 -1.11031e-09 3.32356e-10 9.52226e-10 2.90554 0.965183 0.102902 -1.1103e-09 3.32356e-10 9.5222e-10 10.2786 0.731801 0.0259123 -1.11032e-09 3.32355e-10 9.52224e-10 2.22167 -0.733487 -0.20892 1.27705e-14 1.66105e-12 -1.57391e-13 -44.2011 14.5485 -18.9145 16.5372 -11.9657 -24.8826 0.178847 -24.8327 3.47004 -5.99781e-11 1.65515e-10 -1.48598e-09 -5.1868e-11 3.03487e-10 -2.56687e-09 -5.99831e-11 1.65518e-10 -1.48598e-09 -7.73091 5.47488 -0.417314 -5.99777e-11 1.65518e-10 -1.48597e-09 -2.90554 0.965183 -0.102902 -5.99909e-11 1.65519e-10 -1.48598e-09 -10.2786 0.731801 -0.0259123 -5.99731e-11 1.65518e-10 -1.48598e-09 -2.22167 -0.733487 0.20892 -2.03217e-16 0.0 -3.88251e-19 -3.54202 -23.2469 -3.46892 -0.0347619 11.1673 0.10033 -0.9879 2.06833 -9.23621 2.03217e-16 0.0 3.88251e-19 -2.42408 -5.84384 -1.47341 -0.0198057 9.9278 -0.219761 1.1347 -4.78301 4.65757
182.86 83.2553 36.6755 178.899 -85.9606 -172.131 1.2008 -0.155173 -0.715581 2.29712 -0.706716 -0.18748 -3.63277 5.67179 -2.97995 6.54418 -14.394 -4.37792 -0.0 0.0 0.0 -0.0 0.0 0.0 1.46519e-14 2.3432e-12 -2.20139e-13 35.2933 27.6676 33.0506 -23.5375 -20.1595 42.4943 -0.0110541 3.3902 0.476885 -1.52562e-09 4.5412e-10 1.30421e-09 -2.63433e-09 7.84837e-10 2.2632e-09 -1.52561e-09 4.54117e-10 1.3042e-09 7.73091 5.47488 0.417314 -1.52562e-09 4.54114e-10 1.30421e-09 2.90554 0.965183 0.102902 -1.52561e-09 4.54114e-10 1.30421e-09 10.2786 0.731801 0.0259123 -1.52563e-09 4.54114e-10 1.30421e-09 2.22167 -0.733487 -0.20892 1.45277e-14 2.34319e-12 -2.20574e-13 -61.1014 20.0554 -28.5175 20.7158 -15.509 -36.9901 1.49818 -36.1623 5.69412 -8.12796e-11 2.1551e-10 -2.07132e-09 -6.8524e-11 3.9586e-10 -3.57714e-09 -8.12834e-11 2.15512e-10 -2.07132e-09 -7.73091 5.47488 -0.417314 -8.12782e-11 2.15514e-10 -2.07132e-09 -2.90554 0.965183 -0.102902 -8.12903e-11 2.15515e-10 -2.07132e-09 -10.2786 0.731801 -0.0259123 -8.1273e-11 2.15514e-10 -2.07133e-09 -2.22167 -0.733487 0.20892 -2.03217e-16 0.0 -3.88251e-19 -6.23915 -32.6413 -5.42388 -0.0701931 16.5444 0.178381 -1.36063 1.39339 -13.5206 2.03217e-16 0.0 3.88251e-19 -3.1937 -6.61528 -2.183 -0.00628356 13.6243 -0.334928 1.81398 -8.0015 6.87895
182.15 83.2231 36.6928 176.52 -86.0741 -169.68 1.58021 -0.206804 -0.908759 2.8676 -0.810095 -0.237268 -4.34602 6.81448 -3.6761 7.70284 -17.5529 -5.47637 -0.0 0.0 0.0 -0.0 0.0 0.0 8.79775e-15 2.53073e-12 -2.31932e-13 38.708 31.1546 41.9044 -24.9097 -20.9033 52.6309 -0.0214879 4.18104 0.588662 -1.39874e-09 4.27902e-10 1.24169e-09 -2.41515e-09 7.39295e-10 2.15444e-09 -1.39873e-09 4.27899e-10 1.24169e-09 7.73091 5.47488 0.417314 -1.39874e-09 4.27897e-10 1.2417e-09 2.90554 0.965183 0.102902 -1.39873e-09 4.27896e-10 1.2417e-09 10.2786 0.731801 0.0259123 -1.39875e-09 4.27897e-10 1.2417e-09 2.22167 -0.733487 -0.20892 8.64623e-15 2.53072e-12 -2.32379e-13 -71.3609 23.5844 -35.7737 22.6466 -16.76 -45.575 3.17118 -44.0818 7.82265 2.39555e-12 1.56453e-10 -2.13196e-09 7.70386e-11 2.90598e-10 -3.67822e-09 2.39257e-12 1.56454e-10 -2.13196e-09 -7.73091 5.47488 -0.417314 2.39754e-12 1.56457e-10 -2.13195e-09 -2.90554 0.965183 -0.102902 2.38645e-12 1.56458e-10 -2.13196e-09 -10.2786 0.731801 -0.0259123 2.40291e-12 1.56457e-10 -2.13196e-09 -2.22167 -0.733487 0.20892 -2.03217e-16 0.0 -3.88251e-19 -8.5419 -39.1082 -6.80177 -0.0988366 19.7786 0.22618 -1.70513 0.795791 -16.4936 2.03217e-16 0.0 3.88251e-19 -3.72854 -7.00948 -2.68197 0.0132892 16.132 -0.412757 2.45094 -10.3282 8.44359
181.5 83.1858 36.663 176.591 -86.0961 -169.59 1.79242 -0.268216 -1.0451 3.16829 -0.742931 -0.277602 -4.60732 7.07699 -4.01436 8.18339 -18.8378 -6.02456 -0.0 0.0 0.0 -0.0 0.0 0.0 -1.06014e-14 1.93859e-12 -1.61869e-13 40.081 32.4441 44.9846 -25.262 -20.6203 56.3828 -0.0281678 4.63593 0.653071 -3.66731e-10 1.34753e-10 5.14008e-10 -6.32981e-10 2.32015e-10 8.90653e-10 -3.66723e-10 1.34751e-10 5.13997e-10 7.73091 5.47488 0.417314 -3.6673e-10 1.34749e-10 5.14011e-10 2.90554 0.965183 0.102902 -3.66723e-10 1.34748e-10 5.14011e-10 10.2786 0.731801 0.0259123 -3.66741e-10 1.3475e-10 5.14015e-10 2.22167 -0.733487 -0.20892 -1.07616e-14 1.93858e-12 -1.62284e-13 -74.3499 25.804 -39.0267 23.1978 -16.8653 -48.7644 4.11242 -47.3571 8.91898 2.63824e-10 -7.57271e-11 -1.34046e-09 4.98506e-10 -1.29047e-10 -2.30236e-09 2.63822e-10 -7.57256e-11 -1.34046e-09 -7.73091 5.47488 -0.417314 2.63827e-10 -7.57232e-11 -1.34046e-09 -2.90554 0.965183 -0.102902 2.63816e-10 -7.57229e-11 -1.34046e-09 -10.2786 0.731801 -0.0259123 2.63832e-10 -7.57234e-11 -1.34047e-09 -2.22167 -0.733487 0.20892 -2.03217e-16 0.0 -3.88251e-19 -9.34104 -41.5354 -6.65308 -0.0991944 19.8673 0.222507 -1.92096 0.274603 -17.6701 2.03217e-16 0.0 3.88251e-19 -3.91046 -6.86878 -2.88244 0.0248119 16.9471 -0.431162 2.76506 -11.4424 9.03993
